<mxfile host="65bd71144e">
    <diagram id="Ux1m92wjY8BEZ0rinjdU" name="Page-1">
        <mxGraphModel dx="454" dy="252" grid="1" gridSize="10" guides="1" tooltips="1" connect="1" arrows="1" fold="1" page="1" pageScale="1" pageWidth="850" pageHeight="1100" background="#ffffff" math="0" shadow="0">
            <root>
                <mxCell id="0"/>
                <mxCell id="1" parent="0"/>
                <mxCell id="10" value="" style="edgeStyle=none;html=1;fontColor=#000000;" parent="1" source="4" target="9" edge="1">
                    <mxGeometry relative="1" as="geometry"/>
                </mxCell>
                <mxCell id="11" style="edgeStyle=none;html=1;exitX=1;exitY=0.5;exitDx=0;exitDy=0;entryX=0;entryY=0.5;entryDx=0;entryDy=0;fontColor=#000000;strokeColor=#000000;strokeWidth=2;" parent="1" source="4" target="9" edge="1">
                    <mxGeometry relative="1" as="geometry"/>
                </mxCell>
                <mxCell id="4" value="&lt;font color=&quot;#000000&quot;&gt;Mulai&lt;/font&gt;" style="ellipse;whiteSpace=wrap;html=1;strokeColor=#221b1b;strokeWidth=2;fillColor=none;gradientColor=none;" parent="1" vertex="1">
                    <mxGeometry x="145" y="555" width="110" height="60" as="geometry"/>
                </mxCell>
                <mxCell id="13" value="" style="edgeStyle=none;html=1;strokeColor=#000000;strokeWidth=2;fontColor=#000000;" parent="1" source="9" target="12" edge="1">
                    <mxGeometry relative="1" as="geometry"/>
                </mxCell>
                <mxCell id="9" value="&lt;font color=&quot;#000000&quot;&gt;Kepala Dusun Mendata Warganya&amp;nbsp;&lt;br&gt;&lt;/font&gt;" style="whiteSpace=wrap;html=1;fillColor=none;strokeColor=#221b1b;strokeWidth=2;gradientColor=none;" parent="1" vertex="1">
                    <mxGeometry x="285" y="555" width="120" height="60" as="geometry"/>
                </mxCell>
                <mxCell id="15" value="" style="edgeStyle=none;html=1;strokeColor=#000000;strokeWidth=2;fontColor=#000000;entryX=0;entryY=0.5;entryDx=0;entryDy=0;entryPerimeter=0;" parent="1" source="12" target="19" edge="1">
                    <mxGeometry relative="1" as="geometry">
                        <mxPoint x="595" y="585" as="targetPoint"/>
                    </mxGeometry>
                </mxCell>
                <mxCell id="12" value="&lt;font color=&quot;#000000&quot;&gt;Operator Menginput Data ke Aplikasi&lt;/font&gt;" style="whiteSpace=wrap;html=1;fillColor=none;strokeColor=#221b1b;strokeWidth=2;gradientColor=none;" parent="1" vertex="1">
                    <mxGeometry x="445" y="555" width="120" height="60" as="geometry"/>
                </mxCell>
                <mxCell id="18" value="&lt;font color=&quot;#000000&quot;&gt;Selesai&lt;/font&gt;" style="ellipse;whiteSpace=wrap;html=1;strokeColor=#221b1b;strokeWidth=2;fillColor=none;gradientColor=none;" parent="1" vertex="1">
                    <mxGeometry x="680" y="555" width="110" height="60" as="geometry"/>
                </mxCell>
                <mxCell id="22" value="" style="edgeStyle=none;html=1;fontColor=#000000;strokeWidth=2;strokeColor=#000000;" edge="1" parent="1" source="19" target="18">
                    <mxGeometry relative="1" as="geometry"/>
                </mxCell>
                <mxCell id="19" value="&lt;font color=&quot;#000000&quot;&gt;Database&lt;br&gt;&lt;br&gt;&lt;/font&gt;" style="shape=cylinder3;whiteSpace=wrap;html=1;boundedLbl=1;backgroundOutline=1;size=15;fillColor=none;strokeColor=#000000;strokeWidth=2;" vertex="1" parent="1">
                    <mxGeometry x="600" y="545" width="60" height="80" as="geometry"/>
                </mxCell>
            </root>
        </mxGraphModel>
    </diagram>
</mxfile>